HIERARCHY
ROOT Hips
{
  OFFSET -4.35178 90.3298 111.633
  CHANNELS 6 Xposition Yposition Zposition Zrotation Xrotation Yrotation
  JOINT LeftUpLeg
  {
    OFFSET 0.103456 1.85784 10.5485
    CHANNELS 6 Xposition Yposition Zposition Zrotation Xrotation Yrotation
    JOINT LeftLeg
    {
      OFFSET 43.5 -4.2e-05 0
      CHANNELS 6 Xposition Yposition Zposition Zrotation Xrotation Yrotation
      JOINT LeftFoot
      {
        OFFSET 42.3722 1.9e-05 0
        CHANNELS 6 Xposition Yposition Zposition Zrotation Xrotation Yrotation
        JOINT LeftToe
        {
          OFFSET 17.3 0 0
          CHANNELS 6 Xposition Yposition Zposition Zrotation Xrotation Yrotation
          End Site
          {
            OFFSET 0 0 0
          }
        }
      }
    }
  }
  JOINT RightUpLeg
  {
    OFFSET 0.103456 1.85782 -10.5485
    CHANNELS 6 Xposition Yposition Zposition Zrotation Xrotation Yrotation
    JOINT RightLeg
    {
      OFFSET 43.5 -2.7e-05 0
      CHANNELS 6 Xposition Yposition Zposition Zrotation Xrotation Yrotation
      JOINT RightFoot
      {
        OFFSET 42.3723 0 0
        CHANNELS 6 Xposition Yposition Zposition Zrotation Xrotation Yrotation
        JOINT RightToe
        {
          OFFSET 17.3 0 1.7e-05
          CHANNELS 6 Xposition Yposition Zposition Zrotation Xrotation Yrotation
          End Site
          {
            OFFSET 0 0 0
          }
        }
      }
    }
  }
  JOINT Spine
  {
    OFFSET 6.90197 -2.60373 0
    CHANNELS 6 Xposition Yposition Zposition Zrotation Xrotation Yrotation
    JOINT Spine1
    {
      OFFSET 12.5881 0 0
      CHANNELS 6 Xposition Yposition Zposition Zrotation Xrotation Yrotation
      JOINT Spine2
      {
        OFFSET 12.3432 -1.8e-05 0
        CHANNELS 6 Xposition Yposition Zposition Zrotation Xrotation Yrotation
        JOINT Neck
        {
          OFFSET 25.8329 2.3e-05 0
          CHANNELS 6 Xposition Yposition Zposition Zrotation Xrotation Yrotation
          JOINT Head
          {
            OFFSET 11.7666 0 0
            CHANNELS 6 Xposition Yposition Zposition Zrotation Xrotation Yrotation
            End Site
            {
              OFFSET 0 0 0
            }
          }
        }
        JOINT LeftShoulder
        {
          OFFSET 19.7459 -1.48035 6.0001
          CHANNELS 6 Xposition Yposition Zposition Zrotation Xrotation Yrotation
          JOINT LeftArm
          {
            OFFSET 11.2841 1.8e-05 -2e-05
            CHANNELS 6 Xposition Yposition Zposition Zrotation Xrotation Yrotation
            JOINT LeftForeArm
            {
              OFFSET 33 -1.3e-05 1.9e-05
              CHANNELS 6 Xposition Yposition Zposition Zrotation Xrotation Yrotation
              JOINT LeftHand
              {
                OFFSET 25.2 3.2e-05 1.1e-05
                CHANNELS 6 Xposition Yposition Zposition Zrotation Xrotation Yrotation
                End Site
                {
                  OFFSET 0 0 0
                }
              }
            }
          }
        }
        JOINT RightShoulder
        {
          OFFSET 19.7461 -1.48036 -6.00008
          CHANNELS 6 Xposition Yposition Zposition Zrotation Xrotation Yrotation
          JOINT RightArm
          {
            OFFSET 11.2841 0 0
            CHANNELS 6 Xposition Yposition Zposition Zrotation Xrotation Yrotation
            JOINT RightForeArm
            {
              OFFSET 33.0001 1.6e-05 0
              CHANNELS 6 Xposition Yposition Zposition Zrotation Xrotation Yrotation
              JOINT RightHand
              {
                OFFSET 25.1998 0.000123 0.000432
                CHANNELS 6 Xposition Yposition Zposition Zrotation Xrotation Yrotation
                End Site
                {
                  OFFSET 0 0 0
                }
              }
            }
          }
        }
      }
    }
  }
}
MOTION
Frames:	6
Frame Time:	0.0333333
43.1292 96.6914 54.9989 -80.6189 45.9294 173.029 0.103456 1.85784 10.5485 -26.1154 6.53494 -179.266 43.5 -4.2e-05 1e-05 -69.2885 -5.42407 0.614614 42.3722 1.9e-05 3.55271e-15 71.7763 -2.6311 14.1073 17.3 1.42109e-14 3e-06 21.4546 -1e-06 0.003093 0.103456 1.85782 -10.5485 9.25331 -4.19825 171.933 43.5 -2.7e-05 4e-06 -40.3379 11.9349 9.14076 42.3723 7.10543e-15 1e-05 107.074 26.3518 -17.4481 17.3 -6e-06 1.7e-05 21.4546 -1.9e-05 -0.003116 6.90197 -2.60373 -3e-06 11.6563 0.720987 -0.257321 12.5881 1e-05 8e-06 13.2883 1.53684 -0.63869 12.3432 -1.8e-05 -5e-06 12.949 1.69314 -0.71715 25.8329 2.3e-05 7e-06 9.2822 -0.513094 -3.15971 11.7666 -8e-06 -6e-06 -11.7666 -11.5532 17.2727 19.7459 -1.48035 6.0001 -171.597 12.9965 -79.5945 11.2841 1.8e-05 -2e-05 1.39833 -14.4048 64.4768 33 -1.3e-05 1.9e-05 -94.4063 -5.96082 -5.5312 25.2 3.2e-05 1.1e-05 -28.5476 49.1006 -11.9335 19.7461 -1.48036 -6.00008 -165.105 -15.4488 74.2543 11.2841 1.42109e-14 -1e-06 -7.04057 31.3128 -47.7572 33.0001 1.6e-05 -1e-06 -133.153 -13.605 13.4894 25.1998 0.000123 0.000432 -4.73104 -4.87525 6.26689 
47.696 97.5379 58.9428 -82.3653 45.1818 174.814 0.103456 1.85784 10.5485 -23.0928 4.38121 -179.128 43.5 -4.2e-05 1e-05 -48.3692 -5.34206 -2.35407 42.3722 1.9e-05 0 64.6525 -9.96371 16.8127 17.3 0 3e-06 21.4546 -1e-06 0.003093 0.103456 1.85782 -10.5485 11.7879 -2.64924 171.56 43.5 -2.7e-05 4e-06 -40.9684 12.5271 10.0192 42.3723 7.10543e-15 1e-05 100.757 26.1985 -18.7753 17.3 -6e-06 1.7e-05 21.4546 -1.9e-05 -0.003116 6.90197 -2.60373 -3e-06 11.2663 0.985654 -0.429527 12.5881 1e-05 8e-06 12.5091 2.02016 -1.03183 12.3432 -1.8e-05 -5e-06 12.1646 2.13927 -1.13886 25.8329 2.3e-05 7e-06 8.59115 -1.13324 -2.41494 11.7666 -8e-06 -6e-06 -10.5168 -12.6976 18.1217 19.7459 -1.48035 6.0001 -170.229 11.8954 -79.3914 11.2841 1.8e-05 -2e-05 2.83758 -12.5914 63.8745 33 -1.3e-05 1.9e-05 -95.6119 -7.37721 -5.8334 25.2 3.2e-05 1.1e-05 -27.656 47.7509 -10.5449 19.7461 -1.48036 -6.00008 -164.37 -15.3173 75.4411 11.2841 7.10543e-15 -1e-06 -8.43278 29.5165 -47.1247 33.0001 1.6e-05 -1e-06 -137.384 -11.7837 12.5793 25.1998 0.000123 0.000432 -5.20514 -3.11922 5.38725 
52.4308 97.9454 62.9108 -83.2232 45.3566 175.628 0.103456 1.85784 10.5485 -17.6192 1.53682 -178.949 43.5 -4.2e-05 1e-05 -25.678 -6.91761 -3.32373 42.3722 1.9e-05 0 51.6012 -17.0524 14.388 17.3 0 3e-06 21.4546 -1e-06 0.003093 0.103456 1.85782 -10.5485 10.583 -2.0035 169.877 43.5 -2.7e-05 4e-06 -48.4013 12.151 11.4298 42.3723 0 1e-05 89.4175 23.0994 -18.743 17.3 -6e-06 1.7e-05 21.4546 -1.9e-05 -0.003116 6.90197 -2.60373 -3e-06 10.985 1.22476 -0.487598 12.5881 1e-05 8e-06 11.9462 2.47989 -1.19182 12.3432 -1.8e-05 -5e-06 11.5963 2.57964 -1.32657 25.8329 2.3e-05 7e-06 8.293 -2.32821 -1.54005 11.7666 -8e-06 -6e-06 -11.0055 -14.0959 17.6333 19.7459 -1.48035 6.0001 -168.56 11.321 -79.328 11.2841 1.8e-05 -2e-05 5.52107 -12.3951 65.124 33 -1.3e-05 1.9e-05 -96.2561 -8.21672 -6.06862 25.2 3.2e-05 1.1e-05 -25.1068 47.2088 -10.5516 19.7461 -1.48036 -6.00008 -164.195 -14.8954 76.6897 11.2841 1.42109e-14 -1e-06 -10.891 25.827 -45.349 33.0001 1.6e-05 -1e-06 -139.93 -10.5039 12.3704 25.1998 0.000123 0.000432 -4.60057 0.210921 2.3234 
57.2031 97.5021 66.7805 -82.4693 45.7451 175.363 0.103456 1.85784 10.5485 -10.4475 -0.290377 -178.465 43.5 -4.2e-05 1e-05 -5.98004 -8.15712 -3.19774 42.3722 1.9e-05 7.10543e-15 43.5454 -19.1228 8.8546 17.3 0 3e-06 21.4546 -1e-06 0.003093 0.103456 1.85782 -10.5485 7.23883 -2.07687 167.191 43.5 -2.7e-05 4e-06 -60.6278 12.6073 12.3623 42.3723 0 1e-05 79.3791 13.1989 -18.1475 17.3 -6e-06 1.7e-05 21.4546 -1.9e-05 -0.003116 6.90197 -2.60373 -3e-06 10.9141 1.33235 -0.53388 12.5881 1e-05 8e-06 11.8053 2.68346 -1.30438 12.3432 -1.8e-05 -5e-06 11.4531 2.77375 -1.4514 25.8329 2.3e-05 7e-06 8.20599 -3.18495 -0.953383 11.7666 -8e-06 -6e-06 -12.5269 -14.9777 16.8563 19.7459 -1.48035 6.0001 -167.31 11.103 -79.6529 11.2841 1.8e-05 -2e-05 7.76246 -12.9215 66.7241 33 -1.3e-05 1.9e-05 -96.3278 -8.66898 -6.16411 25.2 3.2e-05 1.1e-05 -22.448 46.4721 -10.638 19.7461 -1.48036 -6.00008 -164.034 -14.5605 77.7207 11.2841 0 -1e-06 -13.4085 21.6245 -43.9201 33.0001 1.6e-05 -1e-06 -141.198 -9.99154 12.4181 25.1998 0.000123 0.000432 -3.61095 3.04925 -0.806672 
61.8787 95.9596 70.4899 -80.8529 45.9118 174.732 0.103456 1.85784 10.5485 -7.81379 -1.69252 -178.311 43.5 -4.2e-05 1e-05 -1.31872 -7.18667 -2.69969 42.3722 1.9e-05 -1.42109e-14 41.0463 -17.2407 7.08384 17.3 0 3e-06 21.4546 -1e-06 0.003093 0.103456 1.85782 -10.5485 3.89549 -1.22216 165.024 43.5 -2.7e-05 4e-06 -74.0537 14.4541 12.0731 42.3723 1.77636e-14 1e-05 77.1649 4.5392 -15.8674 17.3 -6e-06 1.7e-05 21.4546 -1.9e-05 -0.003116 6.90197 -2.60373 -3e-06 10.8797 1.25527 -0.648316 12.5881 1e-05 8e-06 11.7394 2.50651 -1.51561 12.3432 -1.8e-05 -5e-06 11.3899 2.58305 -1.65138 25.8329 2.3e-05 7e-06 8.13906 -3.03658 -0.878374 11.7666 -8e-06 -6e-06 -13.7957 -14.9387 16.8372 19.7459 -1.48035 6.0001 -167.047 10.8379 -80.2438 11.2841 1.8e-05 -2e-05 8.13651 -13.4428 67.0833 33 -1.3e-05 1.9e-05 -96.0701 -7.94907 -6.01504 25.2 3.2e-05 1.1e-05 -21.3692 45.2234 -9.77865 19.7461 -1.48036 -6.00008 -163.503 -14.5456 77.9456 11.2841 7.10543e-15 -1e-06 -15.0658 18.1444 -43.4522 33.0001 1.6e-05 -1e-06 -142.032 -10.3235 12.3668 25.1998 0.000123 0.000432 -2.52696 4.96452 -3.40832 
66.331 93.2662 74.1898 -78.5952 46.3264 173.592 0.103456 1.85784 10.5485 -5.93539 -1.48809 -178.271 43.5 -4.2e-05 1e-05 -4.09697 -5.99943 -2.52622 42.3722 1.9e-05 0 39.5637 -17.341 7.90736 17.3 -1.42109e-14 3e-06 21.4546 -1e-06 0.003093 0.103456 1.85782 -10.5485 0.508431 -0.196811 163.807 43.5 -2.7e-05 4e-06 -85.8858 16.1417 10.633 42.3723 7.10543e-15 1e-05 82.3685 3.85083 -13.2904 17.3 -6e-06 1.7e-05 21.4546 -1.9e-05 -0.003116 6.90197 -2.60373 -3e-06 10.8767 1.06639 -0.824882 12.5881 1e-05 8e-06 11.7375 2.09511 -1.82839 12.3432 -1.8e-05 -5e-06 11.3938 2.15306 -1.9383 25.8329 2.3e-05 7e-06 7.97776 -2.73758 -0.983276 11.7666 -8e-06 -6e-06 -14.4589 -14.6362 16.8802 19.7459 -1.48035 6.0001 -167.689 10.7727 -80.7075 11.2841 1.8e-05 -2e-05 6.99105 -13.7507 65.6713 33 -1.3e-05 1.9e-05 -95.6909 -7.00669 -5.80541 25.2 3.2e-05 1.1e-05 -21.9471 43.6 -8.34322 19.7461 -1.48036 -6.00008 -162.532 -14.9365 77.7815 11.2841 -7.10543e-15 -1e-06 -15.9842 15.3674 -43.706 33.0001 1.6e-05 -1e-06 -142.308 -10.6486 12.6924 25.1998 0.000123 0.000432 -1.47733 5.59201 -4.9004 
